<svg width="12" height="9" viewBox="0 0 12 9" fill="none" xmlns="http://www.w3.org/2000/svg">
<path d="M8.07752 0.163002C8.03954 0.114632 7.99249 0.0751971 7.93937 0.0472119C7.88625 0.0192266 7.82822 0.00330505 7.76898 0.000462115C7.70974 -0.00238082 7.6506 0.00791729 7.59532 0.0306999C7.54004 0.0534826 7.48983 0.0882499 7.4479 0.132785C7.40597 0.177321 7.37324 0.230647 7.35179 0.289365C7.33034 0.348082 7.32064 0.410903 7.32332 0.473821C7.32599 0.53674 7.34098 0.598375 7.36733 0.654799C7.39368 0.711223 7.43081 0.761196 7.47635 0.801534L10.5435 4.06315H0.405357C0.295915 4.06932 0.192869 4.11984 0.117454 4.2043C0.042039 4.28877 0 4.40074 0 4.51715C0 4.63355 0.042039 4.74553 0.117454 4.82999C0.192869 4.91445 0.295915 4.96498 0.405357 4.97114H10.5435L7.47154 8.22893C7.39422 8.31494 7.35108 8.42928 7.35108 8.5482C7.35108 8.66711 7.39422 8.78146 7.47154 8.86746C7.51097 8.90947 7.55782 8.94281 7.6094 8.96555C7.66098 8.98829 7.71628 9 7.77213 9C7.82797 9 7.88327 8.98829 7.93485 8.96555C7.98643 8.94281 8.03328 8.90947 8.07271 8.86746L11.8721 4.83194C11.9126 4.7906 11.9447 4.74101 11.9667 4.68616C11.9887 4.6313 12 4.57229 12 4.51268C12 4.45306 11.9887 4.39406 11.9667 4.3392C11.9447 4.28434 11.9126 4.23476 11.8721 4.19341L8.07752 0.163002Z" fill="#828282"/>
</svg>
