<svg width="17" height="17" viewBox="0 0 17 17" fill="none" xmlns="http://www.w3.org/2000/svg">
<path d="M11.7741 4.08879L5.27276 4.08879C5.12263 4.08497 4.97326 4.11123 4.83344 4.16603C4.69362 4.22083 4.56618 4.30305 4.45862 4.40786C4.35107 4.51266 4.26558 4.63794 4.20718 4.77629C4.14878 4.91465 4.11867 5.06329 4.1186 5.21347C4.11853 5.36364 4.14852 5.51231 4.2068 5.65072C4.26507 5.78913 4.35045 5.91447 4.45792 6.01938C4.56538 6.12428 4.69275 6.20661 4.83252 6.26153C4.97229 6.31645 5.12164 6.34285 5.27177 6.33916L9.11193 6.3362L4.4437 11.0044C4.23262 11.2155 4.11403 11.5018 4.11403 11.8003C4.11403 12.0988 4.23262 12.3851 4.4437 12.5962C4.65478 12.8073 4.94106 12.9258 5.23957 12.9258C5.53808 12.9258 5.82437 12.8073 6.03545 12.5962L10.6859 7.94572L10.6889 11.7563C10.6963 12.0498 10.8182 12.3288 11.0285 12.5337C11.2388 12.7387 11.5209 12.8533 11.8145 12.8532C12.1082 12.853 12.3901 12.7382 12.6003 12.533C12.8104 12.3279 12.932 12.0488 12.9392 11.7553L12.9392 5.25396C12.9397 5.10608 12.9108 4.95958 12.8541 4.82296C12.7975 4.68634 12.7144 4.56232 12.6094 4.45809C12.6034 4.451 12.5968 4.44439 12.5897 4.43834C12.5836 4.4313 12.577 4.4247 12.5699 4.41859C12.3588 4.20759 12.0726 4.08898 11.7741 4.08879Z" fill="#828282"/>
</svg>
