<svg xmlns="http://www.w3.org/2000/svg" xmlns:xlink="http://www.w3.org/1999/xlink">
	<defs>
  <symbol id="icon-fb" width="21" height="21" viewBox="0 0 21 21">
  	<title>icon-fb</title>
    <path d="M18.0184 0H2.55867C1.2539 0 0.192383 1.06152 0.192383 2.36629V17.826C0.192383 19.1308 1.2539 20.1923 2.55867 20.1923H18.0184C19.3232 20.1923 20.3847 19.1308 20.3847 17.826V2.36629C20.3847 1.06152 19.3232 0 18.0184 0ZM18.8072 17.826C18.8072 18.2609 18.4533 18.6148 18.0184 18.6148H13.5225V12.1864H15.9593L16.362 9.74121H13.5225V8.04537C13.5225 7.37591 14.0361 6.86223 14.7056 6.86223H16.3226V4.41707H14.7056C12.6973 4.41707 11.0782 6.04389 11.0782 8.05223V9.74121H8.71101V12.1864H11.0782V18.6148H2.55867C2.12375 18.6148 1.76991 18.2609 1.76991 17.826V2.36629C1.76991 1.93136 2.12375 1.57752 2.55867 1.57752H18.0184C18.4533 1.57752 18.8072 1.93136 18.8072 2.36629V17.826Z"  />
  </symbol>
</defs>
</svg>