<svg width="21" height="21" viewBox="0 0 21 21" fill="none" xmlns="http://www.w3.org/2000/svg">
<g clip-path="url(#clip0)">
<path d="M13.8822 0.192322H6.3101C2.82566 0.192322 0 3.01798 0 6.50242V14.0745C0 17.559 2.82566 20.3846 6.3101 20.3846H13.8822C17.3666 20.3846 20.1923 17.559 20.1923 14.0745V6.50242C20.1923 3.01798 17.3666 0.192322 13.8822 0.192322ZM18.2993 14.0745C18.2993 16.5102 16.3179 18.4916 13.8822 18.4916H6.3101C3.8744 18.4916 1.89303 16.5102 1.89303 14.0745V6.50242C1.89303 4.06672 3.8744 2.08535 6.3101 2.08535H13.8822C16.3179 2.08535 18.2993 4.06672 18.2993 6.50242V14.0745Z" fill="black"/>
<path d="M10.0959 5.24039C7.30813 5.24039 5.04785 7.50067 5.04785 10.2885C5.04785 13.0763 7.30813 15.3365 10.0959 15.3365C12.8837 15.3365 15.144 13.0763 15.144 10.2885C15.144 7.50067 12.8837 5.24039 10.0959 5.24039ZM10.0959 13.4435C8.35687 13.4435 6.94088 12.0275 6.94088 10.2885C6.94088 8.54815 8.35687 7.13342 10.0959 7.13342C11.835 7.13342 13.251 8.54815 13.251 10.2885C13.251 12.0275 11.835 13.4435 10.0959 13.4435Z" fill="black"/>
<path d="M15.5232 5.53445C15.8947 5.53445 16.1959 5.23329 16.1959 4.8618C16.1959 4.4903 15.8947 4.18914 15.5232 4.18914C15.1517 4.18914 14.8506 4.4903 14.8506 4.8618C14.8506 5.23329 15.1517 5.53445 15.5232 5.53445Z" fill="black"/>
</g>
<defs>
<clipPath id="clip0">
<rect y="0.192322" width="20.1923" height="20.1923" fill="white"/>
</clipPath>
</defs>
</svg>
